<svg width="1482" height="1482" fill="none" xmlns="http://www.w3.org/2000/svg"><g opacity=".35" filter="url(#filter0_d)"><path fill-rule="evenodd" clip-rule="evenodd" d="M741 1231c270.62 0 490-219.38 490-490s-219.38-490-490-490-490 219.38-490 490 219.38 490 490 490z" fill="#F4F9FF"/><path d="M741 1231.5c270.9 0 490.5-219.6 490.5-490.5 0-270.896-219.6-490.5-490.5-490.5-270.896 0-490.5 219.604-490.5 490.5 0 270.9 219.604 490.5 490.5 490.5z" stroke="#22B0FC" stroke-opacity=".25"/></g><g opacity=".35" filter="url(#filter1_d)"><path fill-rule="evenodd" clip-rule="evenodd" d="M741 1136c218.152 0 395-176.848 395-395S959.152 346 741 346 346 522.848 346 741s176.848 395 395 395z" fill="#F4F9FF"/><path d="M741 1136.5c218.429 0 395.5-177.071 395.5-395.5S959.429 345.5 741 345.5 345.5 522.571 345.5 741s177.071 395.5 395.5 395.5z" stroke="#22B0FC" stroke-opacity=".25"/></g><g opacity=".35" filter="url(#filter2_d)"><path fill-rule="evenodd" clip-rule="evenodd" d="M741 1041c165.685 0 300-134.315 300-300S906.685 441 741 441 441 575.315 441 741s134.315 300 300 300z" fill="#F4F9FF"/><path d="M741 1041.5c165.962 0 300.5-134.538 300.5-300.5S906.962 440.5 741 440.5 440.5 575.038 440.5 741s134.538 300.5 300.5 300.5z" stroke="#22B0FC" stroke-opacity=".25"/></g><defs><filter id="filter0_d" x="-20%" y="-20%" width="140%" height="140%" filterUnits="userSpaceOnUse" color-interpolation-filters="sRGB"><feFlood flood-opacity="0" result="BackgroundImageFix"/><feColorMatrix in="SourceAlpha" values="0 0 0 0 0 0 0 0 0 0 0 0 0 0 0 0 0 0 127 0"/><feOffset/><feGaussianBlur stdDeviation="125"/><feColorMatrix values="0 0 0 0 0.0588235 0 0 0 0 0.32549 0 0 0 0 0.980392 0 0 0 0.25 0"/><feBlend in2="BackgroundImageFix" result="effect1_dropShadow"/><feBlend in="SourceGraphic" in2="effect1_dropShadow" result="shape"/></filter><filter id="filter1_d" x="95" y="95" width="1292" height="1292" filterUnits="userSpaceOnUse" color-interpolation-filters="sRGB"><feFlood flood-opacity="0" result="BackgroundImageFix"/><feColorMatrix in="SourceAlpha" values="0 0 0 0 0 0 0 0 0 0 0 0 0 0 0 0 0 0 127 0"/><feOffset/><feGaussianBlur stdDeviation="125"/><feColorMatrix values="0 0 0 0 0.0588235 0 0 0 0 0.32549 0 0 0 0 0.980392 0 0 0 0.25 0"/><feBlend in2="BackgroundImageFix" result="effect1_dropShadow"/><feBlend in="SourceGraphic" in2="effect1_dropShadow" result="shape"/></filter><filter id="filter2_d" x="190" y="190" width="1102" height="1102" filterUnits="userSpaceOnUse" color-interpolation-filters="sRGB"><feFlood flood-opacity="0" result="BackgroundImageFix"/><feColorMatrix in="SourceAlpha" values="0 0 0 0 0 0 0 0 0 0 0 0 0 0 0 0 0 0 127 0"/><feOffset/><feGaussianBlur stdDeviation="125"/><feColorMatrix values="0 0 0 0 0.0588235 0 0 0 0 0.32549 0 0 0 0 0.980392 0 0 0 0.25 0"/><feBlend in2="BackgroundImageFix" result="effect1_dropShadow"/><feBlend in="SourceGraphic" in2="effect1_dropShadow" result="shape"/></filter></defs></svg>