<?xml version="1.0" encoding="utf-8"?><svg xmlns="http://www.w3.org/2000/svg" xmlns:xlink="http://www.w3.org/1999/xlink"><symbol fill="none" viewBox="0 0 21 25" id="advantages--svg--advanteges-icon-1" xmlns="http://www.w3.org/2000/svg"><path d="M11.056.34a.8.8 0 00-1.112 0L3.087 6.968l-.006.005a9.98 9.98 0 00-2.795 5.168 9.792 9.792 0 00.63 5.81 10.158 10.158 0 003.839 4.487 10.64 10.64 0 005.745 1.677c2.042 0 4.04-.582 5.745-1.677a10.158 10.158 0 003.839-4.488 9.792 9.792 0 00.63-5.809 9.98 9.98 0 00-2.795-5.168L11.056.34z" fill="#0F53FA"/></symbol><symbol fill="none" viewBox="0 0 25 25" id="advantages--svg--advanteges-icon-2" xmlns="http://www.w3.org/2000/svg"><path d="M.5.115h24v8H.5v-8z" fill="#0F53FA"/><path fill-rule="evenodd" clip-rule="evenodd" d="M2.1 9.715v12a2.4 2.4 0 002.4 2.4h16a2.4 2.4 0 002.4-2.4v-12H2.1zm14.4 4.8h-8v-1.6h8v1.6z" fill="#0F53FA"/></symbol><symbol fill="none" viewBox="0 0 23 25" id="advantages--svg--advanteges-icon-3" xmlns="http://www.w3.org/2000/svg"><path d="M4.192 7.077a4.615 4.615 0 014.616-4.615h2.769v1.846h1.846V.615H8.808a6.462 6.462 0 00-6.462 6.462v6.461H.5v1.847h1.846v2.769a6.463 6.463 0 005.539 6.396l1.846.065h3.461l1.847-.065a6.463 6.463 0 005.538-6.396v-2.77h1.846v-1.846H4.193V7.077z" fill="#0F53FA"/><path d="M15.27 8H9.73V6.154h5.54V8z" fill="#0F53FA"/></symbol><symbol fill="none" viewBox="0 0 22 25" id="advantages--svg--advanteges-icon-4" xmlns="http://www.w3.org/2000/svg"><path fill-rule="evenodd" clip-rule="evenodd" d="M.6 2.785A2.4 2.4 0 013 .385h13.131L21.4 5.653v16.332a2.4 2.4 0 01-2.4 2.4H3a2.4 2.4 0 01-2.4-2.4v-19.2zM5.4 6.78l8 .005v1.6l-8-.005v-1.6zm11.2 4.797H5.4v1.6h11.2v-1.6zm0 4.809l-11.2-.013v1.6l11.2.013v-1.6z" fill="#0F53FA"/></symbol><symbol fill="none" viewBox="0 0 22 24" id="benefits--svg--benefit-icon-1" xmlns="http://www.w3.org/2000/svg"><path d="M11.556.225a.8.8 0 00-1.112 0L3.587 6.852l-.006.006a9.98 9.98 0 00-2.795 5.168 9.792 9.792 0 00.63 5.809 10.158 10.158 0 003.839 4.488A10.64 10.64 0 0011 24c2.042 0 4.04-.583 5.745-1.677a10.157 10.157 0 003.839-4.488 9.792 9.792 0 00.63-5.81 9.98 9.98 0 00-2.795-5.167L11.556.225z" fill="#0F53FA"/></symbol><symbol fill="none" viewBox="0 0 27 27" id="dangers--svg--dangerous-icon" xmlns="http://www.w3.org/2000/svg"><path d="M24.12 8.861c.03-.232.047-.464.047-.694 0-3.172-2.858-5.718-6.028-5.287A5.327 5.327 0 0013.5.167 5.327 5.327 0 008.861 2.88c-3.177-.43-6.028 2.115-6.028 5.287 0 .23.016.462.047.694a5.33 5.33 0 00-2.713 4.64 5.33 5.33 0 002.713 4.638c-.03.232-.047.464-.047.694 0 3.172 2.851 5.711 6.028 5.287a5.327 5.327 0 004.639 2.713 5.327 5.327 0 004.639-2.713c3.17.424 6.028-2.115 6.028-5.287 0-.23-.016-.462-.047-.694a5.33 5.33 0 002.713-4.639 5.33 5.33 0 00-2.713-4.639z" fill="#0F53FA"/></symbol><symbol fill="none" viewBox="0 0 25 27" id="hazard--svg--hazard-icon-1" xmlns="http://www.w3.org/2000/svg"><path d="M1.833 26.833h21.334c.737 0 1.333-.597 1.333-1.333V4.167c0-2.206-1.795-4-4-4h-16c-2.205 0-4 1.794-4 4V25.5c0 .736.596 1.333 1.333 1.333zM12.5 5.888c4.412 0 8 3.588 8 8s-3.588 8-8 8-8-3.588-8-8 3.588-8 8-8z" fill="#0F53FA"/><path d="M8.927 12.853c-.554.512-1.388 1.286-1.388 2.756 0 1.472.834 2.246 1.388 2.758.469.433.533.53.533.8h2.667c0-1.472-.835-2.246-1.388-2.758-.47-.433-.534-.53-.534-.8 0-.269.064-.366.534-.8.552-.512 1.388-1.285 1.388-2.757 0-1.47-.835-2.244-1.388-2.755-.468-.433-.532-.529-.532-.797H7.54c0 1.472.836 2.244 1.39 2.755.467.432.531.528.531.796-.001.27-.066.368-.534.802zm5.333 0c-.552.512-1.387 1.286-1.387 2.756 0 1.471.835 2.246 1.387 2.756.468.434.532.531.532.802h2.667c0-1.472-.835-2.246-1.387-2.756-.468-.434-.532-.531-.532-.802 0-.27.065-.366.532-.801.552-.512 1.387-1.285 1.387-2.757 0-1.471-.835-2.243-1.387-2.754-.467-.432-.532-.529-.532-.797h-2.667c0 1.47.835 2.244 1.388 2.755.467.432.53.529.53.797.002.27-.063.367-.531.801z" fill="#0F53FA"/></symbol><symbol fill="none" viewBox="0 0 25 25" id="hazard--svg--hazard-icon-2" xmlns="http://www.w3.org/2000/svg"><path d="M1.237 21.693l5.334 2.667a1.334 1.334 0 001.192 0l4.737-2.37 4.737 2.369a1.334 1.334 0 001.192.001l5.334-2.667c.452-.226.737-.688.737-1.193v-6.667c0-.505-.285-.966-.737-1.193l-4.596-2.297V4.5c0-.505-.286-.967-.738-1.193L13.096.64a1.333 1.333 0 00-1.193 0L6.569 3.307c-.45.226-.736.688-.736 1.193v5.843L1.237 12.64A1.331 1.331 0 00.5 13.833V20.5c0 .505.285.967.737 1.193zm5.93-9.036l3.018 1.51-3.884 1.942L3.283 14.6l3.884-1.943zM12.5 9.324l4-2v3.019l-4 2V9.324zm8.352 4.843l-3.843 1.921-3.018-1.51 3.842-1.92 3.019 1.509zM7.167 21.676l-.083-.041V18.7l4.083-2.043v3.019l-4 2zm10.666 0v-3.019l4-2v3.019l-4 2zM12.5 3.324l3.019 1.51-3.843 1.92-3.019-1.509L12.5 3.324z" fill="#0F53FA"/></symbol><symbol fill="none" viewBox="0 0 27 19" id="hazard--svg--hazard-icon-3" xmlns="http://www.w3.org/2000/svg"><path d="M5.495 5.5c1.884 0 2.88-.996 3.606-1.724.654-.653.975-.943 1.723-.943.748 0 1.07.29 1.723.943.726.728 1.722 1.724 3.608 1.724 1.886 0 2.884-.996 3.613-1.724.655-.653.976-.943 1.727-.943.75 0 1.072.29 1.726.943.728.728 1.726 1.724 3.612 1.724V2.833c-.75 0-1.072-.289-1.726-.942-.728-.728-1.726-1.724-3.612-1.724-1.887 0-2.883.996-3.612 1.722-.655.655-.975.944-1.728.944-.75 0-1.07-.289-1.723-.942-.727-.728-1.723-1.724-3.608-1.724s-2.881.996-3.608 1.724c-.653.653-.973.942-1.721.942-.748 0-1.068-.289-1.722-.942C3.047 1.163 2.051.167.167.167v2.666c.748 0 1.068.29 1.721.943.727.728 1.723 1.724 3.607 1.724zm0 6.667c1.884 0 2.88-.996 3.606-1.724.654-.654.975-.943 1.723-.943.748 0 1.07.29 1.723.943.726.728 1.722 1.724 3.608 1.724 1.886 0 2.884-.996 3.613-1.724.655-.654.976-.943 1.727-.943.75 0 1.072.29 1.726.943.728.728 1.726 1.724 3.612 1.724V9.5c-.75 0-1.072-.29-1.726-.943-.728-.728-1.726-1.724-3.612-1.724-1.887 0-2.883.996-3.612 1.723-.655.655-.975.944-1.728.944-.75 0-1.07-.29-1.723-.943-.727-.728-1.723-1.724-3.608-1.724s-2.881.996-3.608 1.724c-.653.654-.973.943-1.721.943-.748 0-1.068-.29-1.722-.943C3.047 7.83 2.051 6.833.167 6.833V9.5c.748 0 1.068.29 1.721.943.727.728 1.723 1.724 3.607 1.724zm0 6.666c1.884 0 2.88-.996 3.606-1.724.654-.653.975-.942 1.723-.942.748 0 1.07.289 1.723.942.726.728 1.722 1.724 3.608 1.724 1.886 0 2.884-.996 3.613-1.724.655-.653.976-.942 1.727-.942.75 0 1.072.289 1.726.942.728.728 1.726 1.724 3.612 1.724v-2.666c-.75 0-1.072-.29-1.726-.943-.728-.728-1.726-1.724-3.612-1.724-1.887 0-2.883.996-3.612 1.723-.655.654-.975.944-1.728.944-.75 0-1.07-.29-1.723-.943-.727-.728-1.723-1.724-3.608-1.724s-2.881.996-3.608 1.724c-.653.653-.973.943-1.721.943-.748 0-1.068-.29-1.722-.943C3.047 14.496 2.051 13.5.167 13.5v2.667c.748 0 1.068.289 1.721.942.727.728 1.723 1.724 3.607 1.724z" fill="#0F53FA"/></symbol><symbol fill="none" viewBox="0 0 17 27" id="hazard--svg--hazard-icon-4" xmlns="http://www.w3.org/2000/svg"><path d="M16.5 24.167V5.5a2.668 2.668 0 00-2.667-2.667h-2.666V.167H5.833v2.666H3.167A2.668 2.668 0 00.5 5.5v18.667a2.668 2.668 0 002.667 2.666h10.666a2.668 2.668 0 002.667-2.666zm-12-1.334v-16h8v16h-8z" fill="#0F53FA"/></symbol><symbol fill="none" viewBox="0 0 27 27" id="hazard--svg--hazard-icon-5" xmlns="http://www.w3.org/2000/svg"><path d="M24.12 8.861c.03-.232.047-.464.047-.694 0-3.172-2.858-5.718-6.028-5.287A5.327 5.327 0 0013.5.167 5.327 5.327 0 008.861 2.88c-3.177-.43-6.028 2.115-6.028 5.287 0 .23.016.462.047.694A5.33 5.33 0 00.167 13.5a5.33 5.33 0 002.713 4.639c-.03.232-.047.464-.047.694 0 3.172 2.851 5.711 6.028 5.287a5.327 5.327 0 004.639 2.713 5.327 5.327 0 004.639-2.713c3.17.424 6.028-2.115 6.028-5.287 0-.23-.016-.462-.047-.694a5.33 5.33 0 002.713-4.639 5.33 5.33 0 00-2.713-4.639z" fill="#0F53FA"/></symbol><symbol fill="none" viewBox="0 0 27 27" id="hazard--svg--hazard-icon-6" xmlns="http://www.w3.org/2000/svg"><path d="M6.833 26.833a6.62 6.62 0 004.714-1.953l12.257-12.257.943.944 1.885-1.886L15.319.367l-1.886 1.885.944.943L2.12 15.452a6.626 6.626 0 00-1.953 4.715A6.62 6.62 0 002.12 24.88a6.62 6.62 0 004.713 1.953zM21.92 10.737l-4.096 4.096H6.51l9.752-9.752 5.656 5.656z" fill="#0F53FA"/></symbol><symbol fill="none" viewBox="0 0 26 25" id="how-works--svg--navigation-arrow" xmlns="http://www.w3.org/2000/svg"><path d="M2.115.565a.8.8 0 00-1.05 1.05l9.6 22.4a.8.8 0 001.494-.062l3.073-9.22 9.221-3.074a.8.8 0 00.062-1.494l-22.4-9.6z" fill="#0F53FA" stroke="#0F53FA" stroke-linejoin="round"/></symbol><symbol fill="none" viewBox="0 0 24 24" id="svg-general--close-popup" xmlns="http://www.w3.org/2000/svg"><path d="M17.541 23.43l-5.49-5.491L6.51 23.48.52 17.49l5.541-5.54-5.49-5.491L6.459.57l5.49 5.49L17.491.52l5.99 5.99-5.542 5.541 5.49 5.49-5.888 5.888z" fill="#0F53FA"/></symbol><symbol fill="none" viewBox="0 0 15 15" id="svg-general--messenger" xmlns="http://www.w3.org/2000/svg"><path d="M5 4.768a.5.5 0 01.761.34l.14.836a.5.5 0 01-.216.499l-.501.334A4.501 4.501 0 015 5.5v-.732zM9.5 10a4.5 4.5 0 01-1.277-.184l.334-.5a.5.5 0 01.499-.217l.836.14a.5.5 0 01.34.761H9.5z" fill="#0F53FA"/><path fill-rule="evenodd" clip-rule="evenodd" d="M0 7.5a7.5 7.5 0 113.253 6.182l-2.53 1.265a.5.5 0 01-.67-.67l1.265-2.53A7.467 7.467 0 010 7.5zm4.23-3.42l.206-.138a1.5 1.5 0 012.311 1.001l.14.837a1.5 1.5 0 01-.648 1.495l-.658.438A4.522 4.522 0 007.286 9.42l.44-.658a1.5 1.5 0 011.494-.648l.837.14a1.5 1.5 0 011.001 2.311l-.138.207a.5.5 0 01-.42.229h-1A5.5 5.5 0 014 5.5v-1a.5.5 0 01.23-.42z" fill="#0F53FA"/></symbol><symbol fill="none" viewBox="0 0 15 15" id="svg-general--phone" xmlns="http://www.w3.org/2000/svg"><path d="M2.5 0A2.5 2.5 0 000 2.5v2C0 10.299 4.701 15 10.5 15h2a2.5 2.5 0 002.5-2.5v-1.382a1.5 1.5 0 00-.83-1.342l-2.415-1.208a1.5 1.5 0 00-2.094.868l-.298.893a.71.71 0 01-.812.471A5.547 5.547 0 014.2 6.45a.71.71 0 01.471-.812l1.109-.37a1.5 1.5 0 00.98-1.787l-.586-2.344A1.5 1.5 0 004.72 0H2.5z" fill="#0F53FA"/></symbol><symbol fill="none" viewBox="0 0 10 9" id="svg-general--plus" xmlns="http://www.w3.org/2000/svg"><path d="M9.118 5.76h-2.64v2.56h-2.88V5.76H.958V3.04h2.64V.48h2.88v2.56h2.64v2.72z" fill="#0F53FA"/></symbol><symbol fill="none" viewBox="0 0 15 65" id="svg-general--tail-down" xmlns="http://www.w3.org/2000/svg"><path clip-rule="evenodd" d="M7.5 62.5l-5.5-8h11l-5.5 8z" stroke="#fff" stroke-width="2"/><path d="M7.5 1.5v53" stroke="#fff" stroke-width="2" stroke-linecap="round" stroke-linejoin="round"/></symbol><symbol fill="none" viewBox="0 0 112 113" id="svg-general--youtube" xmlns="http://www.w3.org/2000/svg"><g clip-path="url(#sclip0)"><path d="M109.692 29.614a14.032 14.032 0 00-9.87-9.872c-8.765-2.398-43.823-2.398-43.823-2.398s-35.057 0-43.822 2.307c-4.704 1.291-8.58 5.166-9.87 9.963C0 38.378 0 56.553 0 56.553s0 18.266 2.306 26.939a14.035 14.035 0 009.872 9.871C21.034 95.763 56 95.763 56 95.763s35.057 0 43.821-2.307a14.032 14.032 0 009.872-9.871C112 74.819 112 56.645 112 56.645s.092-18.267-2.308-27.03z" fill="red"/><path d="M44.837 73.344l29.153-16.79-29.153-16.792v33.582z" fill="#fff"/></g><defs><clipPath id="sclip0"><path fill="#fff" transform="translate(0 .5)" d="M0 0h112v112H0z"/></clipPath></defs></symbol><symbol fill="none" viewBox="0 0 112 113" id="svg-general--youtube-hover" xmlns="http://www.w3.org/2000/svg"><g clip-path="url(#tclip0)"><path d="M109.692 29.614a14.032 14.032 0 00-9.87-9.872c-8.765-2.398-43.823-2.398-43.823-2.398s-35.057 0-43.822 2.307c-4.704 1.291-8.58 5.166-9.87 9.963C0 38.378 0 56.553 0 56.553s0 18.266 2.306 26.939a14.035 14.035 0 009.872 9.871C21.034 95.762 56 95.762 56 95.762s35.057 0 43.821-2.307a14.032 14.032 0 009.872-9.871C112 74.819 112 56.645 112 56.645s.092-18.267-2.308-27.03z" fill="#0F53FA"/><path d="M44.837 73.344l29.153-16.79-29.153-16.792v33.582z" fill="#fff"/></g><defs><clipPath id="tclip0"><path fill="#fff" transform="translate(0 .5)" d="M0 0h112v112H0z"/></clipPath></defs></symbol><symbol fill="none" viewBox="0 0 24 24" id="what-we--svg--what-we-icon-1" xmlns="http://www.w3.org/2000/svg"><path d="M14.899 4.791A3.255 3.255 0 009.24 1.588L4.8 8.567V20a4 4 0 004 4h8a4 4 0 003.2-1.6l4-5.333V12a4 4 0 00-4-4h-6.706L14.9 4.791zM0 8v16h1.6V8H0z" fill="#0F53FA"/></symbol></svg>